<svg width="167" height="101" viewBox="0 0 167 101" fill="none" xmlns="http://www.w3.org/2000/svg">
<path d="M45.1986 63.198V50.646H74.2548V63.198H66.3304V66.7009C57.9657 72.8309 62.5149 83.6315 66.3304 85.8208H53.2698V63.198H45.1986Z" fill="black"/>
<path d="M64.5694 75.896C64.5694 84.3613 71.809 86.4533 75.7223 86.4046V77.9393C74.1081 78.6691 72.3471 77.6474 72.7873 75.75C73.2362 73.8157 76.6028 73.9986 76.6028 75.896V86.4046H84.674C84.5762 82.2693 84.674 80.8584 84.674 75.3121C84.674 69.7659 79.6845 65.9711 75.4288 65.9711C71.1731 65.9711 64.5694 68.0433 64.5694 75.896Z" fill="black"/>
<path d="M90.6907 66.5549H83.0598C86.6991 68.8902 87.5111 73.3661 87.4622 75.3121V86.4046H98.6151L100.523 81.2962L99.0554 77.2095L99.9359 76.7717L103.458 86.4046H114.024L120.627 66.5549H111.382L108.301 76.3338L105.806 66.5549H96.2671L93.3322 76.3338L90.6907 66.5549Z" fill="black"/>
<path d="M113.143 64.0737H117.105V45.2457H131.927V59.841L140.585 45.2457H158.342L145.868 64.8035L159.516 84.6532H141.612L131.927 69.7659V84.6532H117.399L116.225 88.448H135.596V82.172L139.705 88.448H167L150.564 64.8035L165.092 41.4509H138.531L135.596 46.1214V41.4509H113.143V64.0737Z" fill="black"/>
<path d="M1.32074 23.9364L31.4042 0L52.536 10.3627L30.377 26.8555L40.2091 42.9104L1.32074 23.9364Z" fill="#53118F"/>
<path d="M0.733743 25.25L0 63.3439L20.8383 73.5607V46.2673L39.4754 44.5159L0.733743 25.25Z" fill="#53118F"/>
<path d="M22.4525 47.1431V85.6749L41.5299 83.6315V45.3916L22.4525 47.1431Z" fill="#53118F"/>
<path d="M32.138 27.4393L42.4104 43.7861L72.4939 20.1416L63.2487 4.08671L32.138 27.4393Z" fill="#53118F"/>
<path d="M49.6011 89.4697V75.896L41.5299 83.6315L43.5844 101L55.7645 89.4697H49.6011Z" fill="#53118F"/>
<path d="M72.4939 20.1416L70.1459 46.9971H77.7768V54.2948L85.4077 51.3757L89.2232 14.0116L72.4939 20.1416Z" fill="#53118F"/>
</svg>
