<svg width="127" height="122" viewBox="0 0 127 122" fill="none" xmlns="http://www.w3.org/2000/svg">
<path d="M3.56589 20.5401V8.68475H30.7215V20.5401H23.3154V23.8486C15.4979 29.6384 19.7495 39.8395 23.3154 41.9073H11.1091V20.5401H3.56589Z" fill="black"/>
<path d="M3.56589 20.5401V8.68475H30.7215V20.5401H23.3154V23.8486C15.4979 29.6384 19.7495 39.8395 23.3154 41.9073H11.1091V20.5401H3.56589Z" fill="#963434" fill-opacity="0.2"/>
<path d="M21.6696 32.5333C21.6696 40.5288 28.4357 42.5047 32.093 42.4588V34.4633C30.5843 35.1525 28.9385 34.1876 29.35 32.3955C29.7695 30.5685 32.9159 30.7412 32.9159 32.5333V42.4588H40.4591C40.3677 38.5529 40.4591 37.2203 40.4591 31.9819C40.4591 26.7435 35.796 23.1593 31.8187 23.1593C27.8413 23.1593 21.6696 25.1165 21.6696 32.5333Z" fill="black"/>
<path d="M21.6696 32.5333C21.6696 40.5288 28.4357 42.5047 32.093 42.4588V34.4633C30.5843 35.1525 28.9385 34.1876 29.35 32.3955C29.7695 30.5685 32.9159 30.7412 32.9159 32.5333V42.4588H40.4591C40.3677 38.5529 40.4591 37.2203 40.4591 31.9819C40.4591 26.7435 35.796 23.1593 31.8187 23.1593C27.8413 23.1593 21.6696 25.1165 21.6696 32.5333Z" fill="#963434" fill-opacity="0.2"/>
<path d="M46.0822 23.7107H38.9505C42.3518 25.9164 43.1107 30.1439 43.0649 31.9819V42.4588H53.4883L55.2713 37.6339L53.8998 33.774L54.7227 33.3605L58.0142 42.4588H67.889L74.0607 23.7107H65.4203L62.5402 32.9469L60.2086 23.7107H51.2939L48.5509 32.9469L46.0822 23.7107Z" fill="black"/>
<path d="M46.0822 23.7107H38.9505C42.3518 25.9164 43.1107 30.1439 43.0649 31.9819V42.4588H53.4883L55.2713 37.6339L53.8998 33.774L54.7227 33.3605L58.0142 42.4588H67.889L74.0607 23.7107H65.4203L62.5402 32.9469L60.2086 23.7107H51.2939L48.5509 32.9469L46.0822 23.7107Z" fill="#963434" fill-opacity="0.2"/>
<path d="M34.1502 21.0915V13.6475L46.0822 9.09831L59.1114 21.0915H49.511L48.5509 24.5379L47.728 21.0915H34.1502Z" fill="black"/>
<path d="M34.1502 21.0915V13.6475L46.0822 9.09831L59.1114 21.0915H49.511L48.5509 24.5379L47.728 21.0915H34.1502Z" fill="#53118F"/>
<path d="M0 26.0542L7.81752 32.9469V23.8486H5.48598L0 26.0542Z" fill="black"/>
<path d="M0 26.0542L7.81752 32.9469V23.8486H5.48598L0 26.0542Z" fill="#53118F"/>
<path d="M14.2635 45.3537L3.56589 61.896L48.4138 84.2282L61.8544 62.5853L26.0584 45.3537H14.2635Z" fill="black"/>
<path d="M14.2635 45.3537L3.56589 61.896L48.4138 84.2282L61.8544 62.5853L26.0584 45.3537H14.2635Z" fill="#53118F"/>
<path d="M17.1437 100.908V70.5808L49.0995 86.4339L61.8544 65.4802V122L17.1437 100.908Z" fill="black"/>
<path d="M17.1437 100.908V70.5808L49.0995 86.4339L61.8544 65.4802V122L17.1437 100.908Z" fill="#53118F"/>
<path d="M63.7745 65.4802V122L108.348 100.771V70.4429L76.8037 86.4339L63.7745 65.4802Z" fill="black"/>
<path d="M63.7745 65.4802V122L108.348 100.771V70.4429L76.8037 86.4339L63.7745 65.4802Z" fill="#53118F"/>
<path d="M63.7745 62.5853L76.8037 84.2282L121.926 61.896L110.405 44.3887H102.039L63.7745 62.5853Z" fill="black"/>
<path d="M63.7745 62.5853L76.8037 84.2282L121.926 61.896L110.405 44.3887H102.039L63.7745 62.5853Z" fill="#53118F"/>
<path d="M67.0661 21.3672H70.7691V3.58418H84.6212V17.3695L92.7131 3.58418H109.308L97.6504 22.0565L110.405 40.8045H93.6731L84.6212 26.7435V40.8045H71.0434L69.9463 44.3887H88.05V38.461L91.8902 44.3887H102.039H110.405H117.4L102.039 22.0565L115.617 0H90.793L88.05 4.4113V0H67.0661V21.3672Z" fill="black"/>
<path d="M67.0661 21.3672H70.7691V3.58418H84.6212V17.3695L92.7131 3.58418H109.308L97.6504 22.0565L110.405 40.8045H93.6731L84.6212 26.7435V40.8045H71.0434L69.9463 44.3887H88.05V38.461L91.8902 44.3887H102.039H110.405H117.4L102.039 22.0565L115.617 0H90.793L88.05 4.4113V0H67.0661V21.3672Z" fill="#963434" fill-opacity="0.2"/>
<path d="M103.659 20.0113L102.424 22.0565L113.408 37.9525L127 28.7059L103.659 20.0113Z" fill="black"/>
<path d="M103.659 20.0113L102.424 22.0565L113.408 37.9525L127 28.7059L103.659 20.0113Z" fill="#53118F"/>
</svg>
