<svg width="184" height="112" viewBox="0 0 184 112" fill="none" xmlns="http://www.w3.org/2000/svg">
<path d="M49.7996 70.0809V56.1618H81.8137V70.0809H73.0826V73.9653C63.8664 80.763 68.8787 92.7399 73.0826 95.1676H58.6924V70.0809H49.7996Z" fill="white"/>
<path d="M71.1424 84.1618C71.1424 93.5491 79.1189 95.869 83.4306 95.815V86.4277C81.652 87.237 79.7118 86.104 80.1968 84C80.6913 81.855 84.4007 82.0578 84.4007 84.1618V95.815H93.2935C93.1857 91.2293 93.2935 89.6647 93.2935 83.5145C93.2935 77.3642 87.7961 73.1561 83.1072 73.1561C78.4183 73.1561 71.1424 75.4539 71.1424 84.1618Z" fill="white"/>
<path d="M99.9227 73.8035H91.5149C95.5248 76.3931 96.4195 81.3565 96.3656 83.5145V95.815H108.654L110.756 90.1503L109.139 85.6185L110.109 85.1329L113.989 95.815H125.631L132.907 73.8035H122.721L119.325 84.6474L116.576 73.8035H106.067L102.833 84.6474L99.9227 73.8035Z" fill="white"/>
<path d="M124.661 71.052H129.026V50.1734H145.357V66.3584L154.896 50.1734H174.46L160.717 71.8613L175.754 93.8728H156.028L145.357 77.3642V93.8728H129.35L128.056 98.0809H149.399V91.1214L153.926 98.0809H184L165.891 71.8613L181.898 45.9653H152.633L149.399 51.1445V45.9653H124.661V71.052Z" fill="white"/>
<path d="M1.45518 26.5434L34.6011 0L57.884 11.4913L33.4692 29.7803L44.3023 47.5838L1.45518 26.5434Z" fill="white"/>
<path d="M0.808436 28L0 70.2428L22.9596 81.5723V51.3064L43.4939 49.3642L0.808436 28Z" fill="white"/>
<path d="M24.7381 52.2775V95.0058L45.7575 92.7399V50.3353L24.7381 52.2775Z" fill="white"/>
<path d="M35.4095 30.4277L46.7276 48.5549L79.8735 22.3353L69.6872 4.53179L35.4095 30.4277Z" fill="white"/>
<path d="M54.6503 99.2139V84.1618L45.7575 92.7399L48.0211 112L61.4411 99.2139H54.6503Z" fill="white"/>
<path d="M79.8735 22.3353L77.2865 52.1156H85.6942V60.2081L94.1019 56.9711L98.3058 15.5376L79.8735 22.3353Z" fill="white"/>
</svg>
